<?xml version="1.0" standalone="no"?>
<svg xmlns:xlink="http://www.w3.org/1999/xlink" id="wave" style="transform:rotate(180deg); transition: 0.3s" viewBox="0 0 1440 470" version="1.1" xmlns="http://www.w3.org/2000/svg"><defs><linearGradient id="sw-gradient-0" x1="0" x2="0" y1="1" y2="0"><stop stop-color="rgba(248, 250, 252, 1)" offset="0%"/><stop stop-color="rgba(248, 250, 252, 1)" offset="100%"/></linearGradient></defs><path style="transform:translate(0, 0px); opacity:1" fill="url(#sw-gradient-0)" d="M0,141L60,133.2C120,125,240,110,360,156.7C480,204,600,313,720,344.7C840,376,960,329,1080,258.5C1200,188,1320,94,1440,94C1560,94,1680,188,1800,227.2C1920,266,2040,251,2160,235C2280,219,2400,204,2520,203.7C2640,204,2760,219,2880,258.5C3000,298,3120,360,3240,329C3360,298,3480,172,3600,164.5C3720,157,3840,266,3960,266.3C4080,266,4200,157,4320,94C4440,31,4560,16,4680,70.5C4800,125,4920,251,5040,313.3C5160,376,5280,376,5400,360.3C5520,345,5640,313,5760,250.7C5880,188,6000,94,6120,86.2C6240,78,6360,157,6480,219.3C6600,282,6720,329,6840,329C6960,329,7080,282,7200,235C7320,188,7440,141,7560,172.3C7680,204,7800,313,7920,360.3C8040,407,8160,392,8280,352.5C8400,313,8520,251,8580,219.3L8640,188L8640,470L8580,470C8520,470,8400,470,8280,470C8160,470,8040,470,7920,470C7800,470,7680,470,7560,470C7440,470,7320,470,7200,470C7080,470,6960,470,6840,470C6720,470,6600,470,6480,470C6360,470,6240,470,6120,470C6000,470,5880,470,5760,470C5640,470,5520,470,5400,470C5280,470,5160,470,5040,470C4920,470,4800,470,4680,470C4560,470,4440,470,4320,470C4200,470,4080,470,3960,470C3840,470,3720,470,3600,470C3480,470,3360,470,3240,470C3120,470,3000,470,2880,470C2760,470,2640,470,2520,470C2400,470,2280,470,2160,470C2040,470,1920,470,1800,470C1680,470,1560,470,1440,470C1320,470,1200,470,1080,470C960,470,840,470,720,470C600,470,480,470,360,470C240,470,120,470,60,470L0,470Z"/></svg>